#define desk_hover_width 10
#define desk_hover_height 10
static unsigned char desk_hover_bits[] = {
0xcf, 0x03, 0xcf, 0x03, 0xcf, 0x03, 0xcf, 0x03, 0x00, 0x00, 0x00, 0x00, 0xcf, 0x03, 0xcf, 0x03, 0xcf, 0x03, 0xcf, 0x03 };
