#define close_width 8
#define close_height 8
static unsigned char close_bits[] = {
   0xc3, 0x66, 0x3c, 0x18, 0x18, 0x3c, 0x66, 0xc3 };
