#define max_hover_width 10
#define max_hover_height 10
static unsigned char max_hover_bits[] = {
   0xff, 0x03, 0xff, 0x03, 0xff, 0x03, 0x00, 0x00, 0xfe, 0x01, 0xfe, 0x01,
   0xfe, 0x01, 0xfe, 0x01, 0xfe, 0x01, 0x00, 0x00 };
