#define max_toggled_hover_width 10
#define max_toggled_hover_height 10
static unsigned char max_toggled_hover_bits[] = {
   0x00, 0x00, 0x00, 0x00, 0x00, 0x00, 0xff, 0x03, 0x01, 0x02, 0x01, 0x02,
   0x01, 0x02, 0x01, 0x02, 0x01, 0x02, 0xff, 0x03 };
