#define max_width 8
#define max_height 8
static unsigned char max_bits[] = {
   0x00, 0xf8, 0x88, 0xbe, 0xaa, 0xfa, 0x22, 0x3e };
