#define max_toggled_hover_width 8
#define max_toggled_hover_height 8
static unsigned char max_toggled_hover_bits[] = {
   0x00, 0xfc, 0x84, 0xbf, 0xa5, 0xfd, 0x21, 0x3f };
