#define max_hover_width 8
#define max_hover_height 8
static unsigned char max_hover_bits[] = {
   0x00, 0x00, 0xff, 0x81, 0x81, 0x81, 0x81, 0xff };
